<svg width="24" height="24" viewBox="0 0 24 24" fill="none" xmlns="http://www.w3.org/2000/svg">
<path d="M12 19.5C12.2739 19.5 12.5 19.7261 12.5 20V22C12.5 22.2739 12.2739 22.5 12 22.5C11.7261 22.5 11.5 22.2739 11.5 22V20C11.5 19.7261 11.7261 19.5 12 19.5ZM17.3086 17.2988C17.4899 17.1131 17.8096 17.1065 18.0068 17.3037L19.0713 18.3682C19.2572 18.5494 19.2637 18.8691 19.0664 19.0664L19.0615 19.0713C18.8802 19.257 18.5605 19.2636 18.3633 19.0664L17.2988 18.002L17.2373 17.9277C17.1143 17.7424 17.1312 17.4763 17.3037 17.3037L17.3086 17.2988ZM5.99805 17.2988C6.17928 17.1128 6.49898 17.1064 6.69629 17.3037L6.70117 17.3086C6.88689 17.4899 6.8935 17.8096 6.69629 18.0068L5.63184 19.0713C5.45616 19.2514 5.13305 19.2606 4.92871 19.0615C4.743 18.8802 4.73638 18.5605 4.93359 18.3633L5.99805 17.2988ZM12 7.5C14.4839 7.5 16.5 9.51614 16.5 12C16.5 14.4839 14.4839 16.5 12 16.5C9.51614 16.5 7.5 14.4839 7.5 12C7.5 9.51614 9.51614 7.5 12 7.5ZM12 8.5C10.0739 8.5 8.5 10.0739 8.5 12C8.5 13.9261 10.0739 15.5 12 15.5C13.9261 15.5 15.5 13.9261 15.5 12C15.5 10.0739 13.9261 8.5 12 8.5ZM2 11.5H4C4.27386 11.5 4.5 11.7261 4.5 12C4.5 12.2739 4.27386 12.5 4 12.5H2C1.72614 12.5 1.5 12.2739 1.5 12C1.5 11.7261 1.72614 11.5 2 11.5ZM20 11.5H22C22.2739 11.5 22.5 11.7261 22.5 12C22.5 12.2739 22.2739 12.5 22 12.5H20C19.7261 12.5 19.5 12.2739 19.5 12C19.5 11.7261 19.7261 11.5 20 11.5ZM4.93848 4.92871C5.11976 4.743 5.43951 4.73638 5.63672 4.93359L6.70117 5.99805C6.88142 6.17369 6.89055 6.49679 6.69141 6.70117C6.51012 6.88689 6.19037 6.8935 5.99316 6.69629L4.92871 5.63184C4.74284 5.45058 4.73633 5.13086 4.93359 4.93359L4.93848 4.92871ZM18.3682 4.92871C18.5494 4.74285 18.8691 4.73633 19.0664 4.93359L19.0713 4.93848C19.257 5.11976 19.2636 5.43951 19.0664 5.63672L18.002 6.70117C17.8263 6.88142 17.5032 6.89055 17.2988 6.69141C17.1131 6.51012 17.1065 6.19037 17.3037 5.99316L18.3682 4.92871ZM12 1.5C12.2739 1.5 12.5 1.72614 12.5 2V4C12.5 4.27386 12.2739 4.5 12 4.5C11.7261 4.5 11.5 4.27386 11.5 4V2C11.5 1.72614 11.7261 1.5 12 1.5Z" fill="#323232" stroke="#45565B"/>
</svg>
