<svg width="16" height="16" viewBox="0 0 16 16" fill="none" xmlns="http://www.w3.org/2000/svg">
<path d="M6.86654 14C6.97812 14.2029 7.14217 14.3722 7.34153 14.4901C7.54089 14.608 7.76826 14.6702 7.99987 14.6702C8.23148 14.6702 8.45885 14.608 8.65821 14.4901C8.85757 14.3722 9.02161 14.2029 9.1332 14M4 5.33331C4 4.27245 4.42143 3.25503 5.17157 2.50489C5.92172 1.75474 6.93913 1.33331 8 1.33331C9.06087 1.33331 10.0783 1.75474 10.8284 2.50489C11.5786 3.25503 12 4.27245 12 5.33331C12 9.99998 14 11.3333 14 11.3333H2C2 11.3333 4 9.99998 4 5.33331Z" stroke="#45565B" stroke-width="1.5" stroke-linecap="round" stroke-linejoin="round"/>
</svg>
