<svg preserveAspectRatio="none" width="100%" height="100%" overflow="visible" style="display: block;" viewBox="0 0 24 24" fill="none" xmlns="http://www.w3.org/2000/svg">
<g id="ZenShip_LT - Mark - Green" clip-path="url(#clip0_0_969)">
<path id="Vector" d="M0.2064 0.1152C0.6432 0.288 1.9872 0.5904 6.0288 0.5904C7.4928 0.5904 9.8688 0 12.0528 0C15.312 0 18.1152 1.1808 20.4672 3.528C22.8192 5.8848 24 8.7072 24 12C24 15.0192 22.9968 17.6352 21.0288 19.8576C20.64 16.2672 19.2 12.6912 16.4976 10.2288C13.4784 7.5216 9.2544 6.9216 5.76 5.1552C3.4752 4.0464 1.4832 2.3328 0.2064 0.1152ZM12.1344 10.2192C7.6032 8.352 1.3008 6.0864 0 0.4752V11.9472C0 15.2784 1.176 18.12 3.5328 20.472C5.8848 22.8288 8.7264 24 12.0576 24C15.3888 24 18.12 22.824 20.472 20.472C20.52 20.424 20.5632 20.3712 20.6112 20.3184C18.8256 15.9024 16.5984 12.072 12.1392 10.2192H12.1344Z" fill="var(--fill-0, #00B794)"/>
</g>
<defs>
<clipPath id="clip0_0_969">
<rect width="24" height="24" fill="white"/>
</clipPath>
</defs>
</svg>
