<svg width="67" height="24" viewBox="0 0 67 24" fill="none" xmlns="http://www.w3.org/2000/svg">
<g clip-path="url(#clip0_0_107)">
<path d="M30.628 2.376C30.628 2.976 30.428 3.496 30.04 3.936C29.96 3.224 29.672 2.516 29.14 2.028C28.544 1.492 27.704 1.372 27.016 1.02C26.56 0.804 26.164 0.464 25.912 0.024C25.996 0.056 26.264 0.116 27.068 0.116C27.356 0.116 27.828 0 28.26 0C28.904 0 29.464 0.232 29.928 0.7C30.392 1.164 30.628 1.724 30.628 2.376ZM28.276 2.028C27.376 1.652 26.128 1.204 25.868 0.096V2.364C25.868 3.028 26.104 3.588 26.572 4.056C27.036 4.524 27.6 4.752 28.26 4.752C28.92 4.752 29.464 4.524 29.928 4.056C29.936 4.044 29.944 4.032 29.956 4.028C29.604 3.148 29.156 2.392 28.276 2.028ZM66.4 11.896C66.4 13.236 66.104 14.424 65.512 15.46C64.916 16.496 64.104 17.316 63.072 17.92C62.036 18.52 60.856 18.824 59.524 18.824C58.192 18.824 57.012 18.52 55.976 17.92C54.944 17.316 54.124 16.496 53.524 15.46C52.924 14.424 52.62 13.236 52.62 11.896C52.62 10.556 52.924 9.372 53.524 8.332C54.124 7.296 54.944 6.476 55.976 5.872C57.012 5.272 58.192 4.972 59.524 4.972C60.856 4.972 62.036 5.272 63.072 5.872C64.104 6.476 64.916 7.296 65.512 8.332C66.104 9.372 66.4 10.556 66.4 11.896ZM62.52 11.98C62.52 11.296 62.396 10.672 62.144 10.152C61.896 9.632 61.544 9.22 61.112 8.928C60.672 8.64 60.136 8.492 59.532 8.492C58.928 8.492 58.368 8.64 57.936 8.928C57.476 9.2 57.124 9.616 56.876 10.152C56.628 10.672 56.504 11.296 56.504 11.98C56.504 12.708 56.628 13.308 56.876 13.824C57.124 14.344 57.476 14.736 57.936 15.032C58.368 15.32 58.912 15.464 59.532 15.464C60.112 15.464 60.652 15.32 61.088 15.032C61.544 14.736 61.896 14.344 62.144 13.824C62.396 13.308 62.52 12.708 62.52 11.98ZM52.136 16.26C51.436 15.048 51.06 13.664 51.024 12.152H51.02V3.968C51.02 2.872 50.576 1.88 49.86 1.164C49.14 0.444 48.152 0 47.052 0L47.044 12.236C47.044 15.76 49.9 18.62 53.424 18.62H54.176C53.356 17.976 52.672 17.184 52.136 16.26Z" fill="#00B794"/>
<path d="M11.268 14.512C11.268 15.34 11.036 16.108 10.564 16.752C10.084 17.416 9.44 17.936 8.612 18.308C7.78 18.68 6.828 18.868 5.768 18.868C4.48 18.868 3.344 18.66 2.344 18.244C1.368 17.828 0.58 17.272 0 16.564L0.72 15.936C1.656 15.12 2.968 14.912 4.116 15.384C4.896 15.704 5.696 15.96 5.996 15.96C6.224 15.96 6.432 15.94 6.62 15.9C6.804 15.836 6.952 15.776 7.076 15.692C7.2 15.588 7.304 15.484 7.364 15.36C7.428 15.236 7.472 15.092 7.472 14.924C7.472 14.592 7.324 14.344 7.016 14.156C6.868 14.072 6.62 13.972 6.264 13.848C5.916 13.74 5.48 13.596 4.916 13.452C4.148 13.264 3.468 13.016 2.904 12.748C2.324 12.476 1.848 12.144 1.492 11.792C1.16 11.44 0.892 11.044 0.724 10.632C0.54 10.216 0.436 9.74 0.436 9.2C0.436 8.576 0.58 8.036 0.872 7.54C1.16 7.04 1.556 6.604 2.056 6.232C2.532 5.876 3.112 5.588 3.736 5.404C4.38 5.216 5.04 5.108 5.728 5.108C6.452 5.108 7.16 5.192 7.82 5.36C8.488 5.528 9.088 5.752 9.672 6.068C10.252 6.356 10.748 6.712 11.204 7.124H11.2C10.136 8.316 8.472 8.696 6.964 8.18799C6.96 8.184 6.956 8.184 6.952 8.184C6.536 8.036 6.184 7.976 5.852 7.976C5.604 7.976 5.372 7.996 5.188 8.036C5 8.076 4.836 8.14 4.708 8.244C4.564 8.324 4.46 8.432 4.396 8.55599C4.336 8.68 4.296 8.824 4.296 8.992C4.296 9.16 4.356 9.324 4.44 9.468C4.524 9.612 4.668 9.74 4.836 9.84C5 9.944 5.248 10.052 5.62 10.176C5.996 10.3 6.496 10.464 7.116 10.648C7.904 10.856 8.572 11.104 9.128 11.356C9.688 11.624 10.144 11.936 10.48 12.312C10.748 12.6 10.936 12.912 11.08 13.288C11.204 13.66 11.268 14.072 11.268 14.512ZM30.232 5.38C29.136 5.38 28.144 5.824 27.424 6.544C26.708 7.26 26.264 8.252 26.264 9.348V18.62C28.464 18.62 30.248 16.836 30.244 14.636L30.232 5.38ZM45.6 11.98C45.6 13.304 45.352 14.488 44.832 15.528C44.336 16.544 43.632 17.356 42.736 17.952C41.82 18.564 40.744 18.852 39.508 18.824C38.832 18.808 38.168 18.672 37.544 18.408C36.864 18.116 36.3 17.744 35.828 17.272V19.996C35.828 22.208 34.036 24 31.82 24V5.38H32.508C33.768 5.38 34.952 5.992 35.68 7.02C35.68 7.02 36.864 5.132 39.748 5.132C42.632 5.132 44.332 7.416 44.828 8.432C45.348 9.468 45.596 10.652 45.596 11.98H45.6ZM41.72 11.98C41.72 11.296 41.596 10.672 41.348 10.152C41.1 9.632 40.744 9.216 40.312 8.928C39.876 8.636 39.336 8.492 38.732 8.492C38.128 8.492 37.568 8.64 37.136 8.928C36.676 9.2 36.328 9.612 36.076 10.152C35.828 10.672 35.704 11.292 35.704 11.98C35.704 12.708 35.828 13.304 36.076 13.824C36.324 14.344 36.676 14.736 37.136 15.028C37.568 15.32 38.112 15.46 38.732 15.46C39.312 15.46 39.852 15.316 40.288 15.028C40.744 14.736 41.096 14.344 41.348 13.824C41.6 13.304 41.72 12.704 41.72 11.98ZM24.336 7.54C24.004 6.732 23.484 6.128 22.804 5.736C22.12 5.32 21.288 5.112 20.292 5.112C19.564 5.112 18.86 5.26 18.196 5.572C17.528 5.864 16.972 6.252 16.492 6.756C16.432 6.816 16.368 6.88 16.304 6.964V3.928C16.304 1.764 14.548 0.00799561 12.384 0.00799561V18.628C13.484 18.628 14.48 18.18 15.2 17.46C15.92 16.74 16.368 15.744 16.368 14.644V10.7C16.368 10.392 16.432 10.1 16.556 9.828C16.68 9.55599 16.864 9.332 17.072 9.124C17.28 8.91199 17.552 8.748 17.84 8.644C18.152 8.54 18.46 8.48 18.816 8.48C19.272 8.456 19.644 8.54 19.956 8.728C20.244 8.892 20.476 9.164 20.64 9.496C20.784 9.848 20.848 10.284 20.848 10.82V14.596C20.848 16.82 22.648 18.624 24.876 18.624V10.488C24.876 9.328 24.688 8.352 24.332 7.544L24.336 7.54Z" fill="#103859"/>
</g>
<defs>
<clipPath id="clip0_0_107">
<rect width="66.4" height="24" fill="white"/>
</clipPath>
</defs>
</svg>
